{
  "accessors": [
    {
      "bufferView": 2,
      "componentType": 5126,
      "count": 4524,
      "max": [
        369.5182189941406,
        662.2122192382812,
        1447.7703857421875
      ],
      "min": [
        -368.4661560058594,
        -568.14501953125,
        0.8878681659698486
      ],
      "type": "VEC3",
      "byteOffset": 0
    },
    {
      "bufferView": 2,
      "byteOffset": 54288,
      "componentType": 5126,
      "count": 4524,
      "max": [
        0.9994572401046753,
        0.9928290843963623,
        0.9962369799613953
      ],
      "min": [
        -0.9999656081199646,
        -0.996978223323822,
        -0.999538242816925
      ],
      "type": "VEC3"
    },
    {
      "bufferView": 1,
      "componentType": 5126,
      "count": 4524,
      "max": [
        0.9887700080871582,
        0.9914630055427551
      ],
      "min": [
        0.00291300006210804,
        0.007812976837158203
      ],
      "type": "VEC2",
      "byteOffset": 0
    },
    {
      "bufferView": 0,
      "componentType": 5125,
      "count": 4524,
      "type": "SCALAR",
      "byteOffset": 0
    }
  ],
  "asset": {
    "extras": {
      "author": "sinork123 (https://sketchfab.com/sinork123)",
      "license": "CC-BY-4.0 (http://creativecommons.org/licenses/by/4.0/)",
      "source": "https://sketchfab.com/3d-models/deer-ff5d94e3b3634ec5b7e8689106968bec",
      "title": "Deer"
    },
    "generator": "Sketchfab-12.68.0",
    "version": "2.0"
  },
  "bufferViews": [
    {
      "buffer": 0,
      "byteLength": 18096,
      "name": "floatBufferViews",
      "target": 34963,
      "byteOffset": 0
    },
    {
      "buffer": 0,
      "byteLength": 36192,
      "byteOffset": 18096,
      "byteStride": 8,
      "name": "floatBufferViews",
      "target": 34962
    },
    {
      "buffer": 0,
      "byteLength": 108576,
      "byteOffset": 54288,
      "byteStride": 12,
      "name": "floatBufferViews",
      "target": 34962
    }
  ],
  "buffers": [
    {
      "name": "deer",
      "byteLength": 162864,
      "uri": "data:application/octet-stream;base64,"
    }
  ],
  "materials": [
    {
      "doubleSided": true,
      "name": "RootNode",
      "pbrMetallicRoughness": {
        "metallicFactor": 0,
        "roughnessFactor": 0.6,
        "baseColorFactor": [
          1,
          1,
          1,
          1
        ]
      },
      "emissiveFactor": [
        0,
        0,
        0
      ],
      "alphaMode": "OPAQUE"
    }
  ],
  "meshes": [
    {
      "name": "grp1_2__0",
      "primitives": [
        {
          "attributes": {
            "NORMAL": 1,
            "POSITION": 0,
            "TEXCOORD_0": 2
          },
          "indices": 3,
          "material": 0,
          "mode": 4
        }
      ]
    }
  ],
  "nodes": [
    {
      "children": [
        1
      ],
      "matrix": [
        1,
        0,
        0,
        0,
        0,
        2.220446049250313e-16,
        -1,
        0,
        0,
        1,
        2.220446049250313e-16,
        0,
        0,
        0,
        0,
        1
      ],
      "name": "Sketchfab_model"
    },
    {
      "children": [
        2
      ],
      "matrix": [
        1,
        0,
        0,
        0,
        0,
        0,
        1,
        0,
        0,
        -1,
        0,
        0,
        0,
        0,
        0,
        1
      ],
      "name": "72d5448dd07d41d3979977fcc2394306.fbx"
    },
    {
      "children": [
        3
      ],
      "name": "RootNode"
    },
    {
      "children": [
        4
      ],
      "matrix": [
        4.084055730269043e-7,
        -5.551115123125783e-17,
        0.9999999999999165,
        0,
        0.9999999999999165,
        1.1102230246251565e-16,
        -4.0840557308241543e-7,
        0,
        -1.6653345369377348e-16,
        1,
        0,
        0,
        -93.92503356933594,
        5.707899570465088,
        0.000008211188287532423,
        1
      ],
      "name": "grp1"
    },
    {
      "children": [
        5
      ],
      "matrix": [
        1,
        -4.440892098500627e-16,
        2.719261971675979e-32,
        0,
        4.440892098500627e-16,
        1,
        2.220446049250313e-16,
        0,
        -1.2580023286938629e-31,
        -2.220446049250313e-16,
        1,
        0,
        0,
        0,
        0,
        1
      ],
      "name": "grp1_2"
    },
    {
      "mesh": 0,
      "name": "grp1_2__0"
    }
  ],
  "scene": 0,
  "scenes": [
    {
      "name": "Sketchfab_Scene",
      "nodes": [
        0
      ]
    }
  ]
}
